<?xml version="1.0" encoding="UTF-8"?>
<!DOCTYPE svg PUBLIC "-//W3C//DTD SVG 1.1//EN" "http://www.w3.org/Graphics/SVG/1.1/DTD/svg11.dtd">
<!-- Creator: CorelDRAW -->
<svg xmlns="http://www.w3.org/2000/svg" xml:space="preserve" width="42.3332mm" height="25.3998mm" version="1.1" style="shape-rendering:geometricPrecision; text-rendering:geometricPrecision; image-rendering:optimizeQuality; fill-rule:evenodd; clip-rule:evenodd"
viewBox="0 0 4233.32 2539.98"
 xmlns:xlink="http://www.w3.org/1999/xlink"
 xmlns:xodm="http://www.corel.com/coreldraw/odm/2003">
 <defs>
  <style type="text/css">
   <![CDATA[
    .fil3 {fill:#003A48}
    .fil0 {fill:#0C5A5A}
    .fil1 {fill:#53917B}
    .fil2 {fill:#A9C7A1}
   ]]>
  </style>
 </defs>
 <g id="Camada_x0020_1">
  <metadata id="CorelCorpID_0Corel-Layer"/>
  <g id="_105553190502624">
   <path class="fil0" d="M-0.01 1897.8c913.71,27.81 1233.72,329.87 2085.98,349.57 893.3,20.69 1314.2,-300.04 2147.36,-347.37l0 -737.29c-972.96,-5.29 -1313.72,269.19 -2146.88,253.34 -800.41,-15.22 -1088.77,-264.23 -2086.46,-251.91l0 733.66z"/>
   <path class="fil1" d="M-0.01 574.52l0 589.62c997.69,-12.32 1286.05,236.69 2086.46,251.91 833.16,15.85 1173.92,-258.63 2146.88,-253.34l0 -430.13c-1862.28,123.67 -1949.68,-590.47 -4233.34,-158.06z"/>
   <path class="fil2" d="M-0.01 55.51l0 519.01c2283.66,-432.41 2371.06,281.73 4233.34,158.06l0 -732.59 -4152.38 0c0,73.03 28.57,55.52 -80.96,55.52z"/>
   <path class="fil3" d="M-0.01 2539.99l4233.34 0 0 -639.99c-833.16,47.33 -1254.06,368.06 -2147.36,347.37 -852.26,-19.7 -1172.27,-321.76 -2085.98,-349.57l0 642.19z"/>
   <path class="fil2" d="M80.95 -0.01l-80.96 0 0 55.52c109.53,0 80.96,17.51 80.96,-55.52z"/>
  </g>
 </g>
</svg>
